HIERARCHY
ROOT hip
{
	OFFSET 0.000000 0.000000 0.000000 
	CHANNELS 6 Xposition Yposition Zposition Xrotation Zrotation Yrotation
	JOINT abdomen
	{
		OFFSET 0.000000 3.402643 0.000000 
		CHANNELS 3 Xrotation Zrotation Yrotation
		JOINT chest
		{
			OFFSET 0.000000 8.438565 -0.680529 
			CHANNELS 3 Xrotation Zrotation Yrotation
			JOINT neck
			{
				OFFSET 0.000000 10.207942 -0.272212 
				CHANNELS 3 Xrotation Zrotation Yrotation
				JOINT head
				{
					OFFSET 0.000000 3.130431 0.000000 
					CHANNELS 3 Xrotation Zrotation Yrotation
					End Site
					{
						OFFSET 0.000000 3.130435 0.000000 
					}
				}
			}
			JOINT lCollar
			{
				OFFSET 3.470700 6.669187 -0.816635 
				CHANNELS 3 Yrotation Zrotation Xrotation
				JOINT lShldr
				{
					OFFSET 3.198488 0.000000 0.000000 
					CHANNELS 3 Zrotation Yrotation Xrotation
					JOINT lForeArm
					{
						OFFSET 10.139888 0.000000 0.000000 
						CHANNELS 3 Yrotation Zrotation Xrotation
						JOINT lHand
						{
							OFFSET 8.370511 0.000000 0.000000 
							CHANNELS 3 Zrotation Yrotation Xrotation
							End Site
							{
								OFFSET 4.083176 0.000000 0.000000 
							}
						}
					}
				}
			}
			JOINT rCollar
			{
				OFFSET -3.470700 6.669187 -0.816635 
				CHANNELS 3 Yrotation Zrotation Xrotation
				JOINT rShldr
				{
					OFFSET -3.198488 0.000000 0.000000 
					CHANNELS 3 Zrotation Yrotation Xrotation
					JOINT rForeArm
					{
						OFFSET -10.139888 0.000000 0.000000 
						CHANNELS 3 Yrotation Zrotation Xrotation
						JOINT rHand
						{
							OFFSET -8.370511 0.000000 0.000000 
							CHANNELS 3 Zrotation Yrotation Xrotation
							End Site
							{
								OFFSET -4.083176 0.000000 0.000000 
							}
						}
					}
				}
			}
		}
	}
	JOINT lThigh
	{
		OFFSET 5.308129 -1.633274 1.361059 
		CHANNELS 3 Xrotation Zrotation Yrotation
		JOINT lShin
		{
			OFFSET -2.041588 -20.007561 0.000000 
			CHANNELS 3 Xrotation Zrotation Yrotation
			JOINT lFoot
			{
				OFFSET 0.000000 -19.190928 -1.224953 
				CHANNELS 3 Xrotation Yrotation Zrotation
				End Site
				{
					OFFSET 0.000000 -2.449906 4.627600 
				}
			}
		}
	}
	JOINT rThigh
	{
		OFFSET -5.308129 -1.633274 1.361059 
		CHANNELS 3 Xrotation Zrotation Yrotation
		JOINT rShin
		{
			OFFSET 2.041588 -20.007561 0.000000 
			CHANNELS 3 Xrotation Zrotation Yrotation
			JOINT rFoot
			{
				OFFSET 0.000000 -19.190928 -1.224953 
				CHANNELS 3 Xrotation Yrotation Zrotation
				End Site
				{
					OFFSET 0.000000 -2.449906 4.627600 
				}
			}
		}
	}
}
MOTION
Frames: 12
Frame Time: 0.033333
-0.374813 48.282032 -1.897560 -0.058633 2.089843 -1.711121 0.000000 0.000000 0.000000 -4.834974 -1.157975 1.103782 4.846294 -1.085603 0.959423 5.224546 0.350951 0.028108 1.060881 8.954370 -3.849174 -5.001388 -4.872500 -13.581705 0.152816 -10.296412 18.393398 0.952504 -9.290839 -3.415644 0.605122 -11.191813 -3.867352 5.447216 -4.912531 -5.928193 -0.219526 6.375089 12.101327 -2.143480 7.046646 -3.542616 7.613403 9.459416 9.391651 -0.000141 -3.437727 10.498424 -3.894621 0.343732 -10.063789 6.376206 -18.251028 -16.404686 -1.317369 4.923151 0.878704 -0.578612 -0.040623 12.274342 
-0.366255 48.275360 -1.886412 -0.048859 2.050781 -1.710732 0.000000 0.000000 0.000000 -4.844613 -1.080113 1.107150 4.854510 -1.133073 1.031410 5.478450 0.370542 0.087192 0.389012 9.009457 -3.830537 -4.821513 -4.116812 -13.119338 0.156765 -10.541484 18.088600 0.941246 -9.428485 -3.416079 0.644151 -11.214790 -3.890259 5.525012 -4.902501 -5.902866 -0.215778 6.380941 11.857486 -2.080432 6.982018 -3.539181 7.566984 9.492078 9.375182 0.349402 -3.415061 10.210273 -4.237540 0.367829 -10.106527 6.421683 -18.236954 -16.438005 -1.434921 4.983772 0.916173 -0.534885 -0.051470 12.247540 
-0.352413 48.277744 -1.876520 -0.078176 2.060545 -1.731325 0.000000 0.000000 0.000000 -4.825094 -1.089875 1.146665 4.932683 -1.142887 1.030550 5.556570 0.390073 0.037831 0.365063 9.020349 -3.792941 -4.898768 -4.156094 -13.103563 0.159528 -10.512588 18.380693 1.037718 -9.393352 -3.421899 0.642799 -11.175057 -3.857201 5.455603 -4.873710 -5.860183 -0.204540 6.395543 11.777732 -1.749778 6.884798 -3.509262 7.609952 9.427205 9.348054 0.038871 -3.360480 10.689878 -3.904535 0.334453 -10.089067 6.413513 -18.277737 -16.472013 -1.337177 5.002894 1.021147 -0.591345 -0.045829 12.251946 
-0.349393 48.279640 -1.873563 0.039089 2.099609 -1.697430 0.000000 0.000000 0.000000 -4.942335 -1.109143 1.189639 4.980819 -1.219365 1.058068 6.005808 0.360957 0.003155 0.327756 8.768886 -3.910391 -4.779943 -4.174300 -12.970513 0.159883 -10.536132 18.469093 0.938018 -9.536297 -3.417119 0.622034 -11.186509 -3.983087 5.334471 -4.953344 -5.629926 -0.218155 6.444670 12.083453 -1.804049 7.126092 -3.512740 7.508142 9.403141 9.312607 -0.002235 -3.395755 10.644313 -3.892843 0.356271 -10.058491 6.322577 -18.312561 -16.468147 -1.357576 5.005410 0.940552 -0.569933 -0.063111 12.254967 
-0.347883 48.284546 -1.875047 0.136815 2.148431 -1.664430 0.000000 0.000000 0.000000 -5.020458 -1.099283 1.170765 4.988453 -1.370532 1.077840 6.308562 0.302492 0.066003 0.169095 8.897972 -3.954377 -4.782056 -4.063974 -12.503701 0.147245 -10.959997 17.667330 1.220023 -9.470453 -3.442130 0.596742 -11.117411 -4.041793 5.215736 -4.924850 -5.565208 -0.205838 6.454510 11.926593 -1.650217 7.184371 -3.503502 7.395928 9.339647 9.233582 -0.039157 -3.360329 10.734289 -3.862182 0.334218 -10.066742 6.206398 -18.352600 -16.471313 -1.317578 4.992591 0.837599 -0.588502 -0.048608 12.261184 
-0.353041 48.277496 -1.881793 0.175903 2.128896 -1.633732 0.000000 0.000000 0.000000 -5.000989 -1.138230 1.154263 4.932108 -1.242186 1.017947 6.572263 -0.087835 0.169131 0.191869 9.043422 -3.946340 -4.898129 -4.162083 -12.499343 0.145205 -10.982492 17.470814 1.205977 -9.402811 -3.441545 0.628951 -11.031010 -4.023897 5.216380 -4.914923 -5.604223 -0.208785 6.415231 12.081815 -1.628988 6.999767 -3.501746 7.317313 9.369288 9.236416 0.057716 -3.390041 10.815865 -3.887540 0.335246 -10.067067 6.129207 -18.294943 -16.406073 -1.279817 4.948520 0.724119 -0.569112 -0.075743 12.260532 
-0.361978 48.285553 -1.888225 0.234538 2.138654 -1.602217 0.000000 0.000000 0.000000 -4.991290 -1.177161 1.108638 4.883405 -1.268693 1.052100 6.738271 -0.195209 0.260263 0.190923 9.014685 -3.945311 -4.869612 -4.171961 -12.536841 0.147005 -10.952783 17.628117 1.176497 -9.404585 -3.439805 0.621321 -11.186394 -4.015875 5.422882 -4.864864 -5.673123 -0.204716 6.422330 11.817394 -1.933423 6.991008 -3.529382 7.205396 9.373812 9.214695 0.105317 -3.385751 10.744149 -3.904413 0.340733 -10.065306 6.039523 -18.244316 -16.281649 -1.288483 4.837735 0.454123 -0.546562 -0.049558 12.290514 
-0.369402 48.285553 -1.899663 0.273626 2.128882 -1.610573 0.000000 0.000000 0.000000 -4.903451 -1.216237 1.061342 4.834590 -1.305509 1.075305 6.435547 -0.019517 0.274176 0.250529 9.029989 -3.875381 -4.798035 -4.222778 -12.902861 0.159427 -10.812429 17.685087 0.984982 -9.337812 -3.417395 0.566595 -11.082354 -3.931255 5.319742 -4.678533 -5.979283 -0.216103 6.397967 11.896925 -1.800586 6.911054 -3.512143 7.175448 9.382794 9.185793 0.077426 -3.352053 10.862814 -3.854268 0.333103 -10.088125 5.945235 -18.200525 -16.216118 -1.230323 4.799555 0.362316 -0.553756 -0.064109 12.295708 
-0.373681 48.277626 -1.904318 0.263839 2.040994 -1.640652 0.000000 0.000000 0.000000 -4.854509 -1.157942 1.104177 4.981304 -1.227928 1.045468 6.152295 -0.360998 0.308422 0.196075 8.983820 -3.824755 -4.644083 -4.222667 -12.982739 0.161047 -10.774863 17.811064 0.825111 -9.464783 -3.399315 0.600984 -11.054966 -3.894142 5.219261 -4.689384 -5.827853 -0.217997 6.436159 12.063735 -2.013644 7.015457 -3.535165 7.165450 9.470106 9.236855 0.184739 -3.332447 10.806382 -3.924247 0.345513 -10.127422 5.897250 -18.143829 -16.174105 -1.131436 4.813729 0.379469 -0.598301 -0.055809 12.300637 
-0.389286 48.283665 -1.929827 0.293142 1.972631 -1.649735 0.000000 0.000000 0.000000 -4.815390 -1.128815 1.081398 5.039419 -1.238172 1.077468 6.074166 -0.370732 0.328876 0.118063 8.988893 -3.786280 -4.555212 -4.153321 -12.881023 0.148047 -10.866198 17.606543 1.098281 -9.575607 -3.426436 0.614080 -11.074507 -3.851913 5.201885 -4.610734 -5.972981 -0.216725 6.386333 11.925927 -1.818377 6.880618 -3.513297 7.097451 9.548647 9.255945 0.261051 -3.328743 10.664372 -3.975743 0.348903 -10.127553 5.858747 -18.018141 -16.064772 -1.245397 4.772808 0.263905 -0.487721 -0.045974 12.289556 
-0.397087 48.292847 -1.948452 0.283368 1.953101 -1.630640 0.000000 0.000000 0.000000 -4.776352 -1.148343 1.072488 5.215034 -1.285843 1.123296 5.839822 -0.224348 0.333096 0.089600 9.078559 -3.742169 -4.583794 -4.172788 -12.853113 0.156531 -10.902623 17.501816 1.051150 -9.451248 -3.422486 0.647022 -11.017025 -3.814597 5.123008 -4.572121 -5.949279 -0.216119 6.425379 11.926850 -1.951211 6.960569 -3.530536 7.084655 9.556209 9.276973 0.133485 -3.309209 10.780192 -3.811949 0.357634 -10.118864 5.859114 -17.988474 -16.050995 -1.286576 4.781643 0.241025 -0.443175 -0.035343 12.260470 
-0.392432 48.301289 -1.947911 0.254058 1.982402 -1.670566 0.000000 0.000000 0.000000 -4.756866 -1.177572 1.084291 5.176142 -1.304966 1.142519 6.132798 -0.195131 0.340451 0.055927 9.022122 -3.735106 -4.477317 -4.152938 -12.867259 0.156778 -10.909839 17.541023 1.078227 -9.410489 -3.433994 0.680664 -11.019032 -3.800990 5.044298 -4.494358 -5.944939 -0.211876 6.469644 11.692577 -1.970081 7.106177 -3.532287 7.133208 9.525765 9.254010 0.115135 -3.307230 10.810764 -3.816627 0.344590 -10.113910 5.888304 -18.046577 -16.140732 -1.248755 4.815014 0.360302 -0.474341 -0.043930 12.237509 
